# xmcd
#
# Track frame offsets:
# 182
# 16982
# 32067
# 43015
# 57742
# 74420
# 88382
# 103065
# 115505
# 132877
# 149140
# 161210
#
# Disc length: 2298 seconds
#
# Revision: 3
# Processed by: cddbd v1.5.2PL0 Copyright (c) Steve Scherf et al.
# Submitted via: Axialis_AX_CDPlayer 2.6
#
DISCID=b608f80c
DTITLE=Various Artist - Country Lovin Volume Two
DYEAR=1900
DGENRE=Country
TTITLE0=Carlene Carter-I Fell In Love
TTITLE1=Vern Gosden-You've Got Somebody I've Got Somebody
TTITLE2=Eddy Raven-She's Playing Hard To Get
TTITLE3=The Nitty Gritty Dirt Band-High Horse
TTITLE4=Gary Morris-I'll Never Stop Loving You
TTITLE5=Willie Nelson_Tracy Nelson-After The Fire Is Gone
TTITLE6=The Forrester Sisters-I Fell In Love Again Last Night
TTITLE7=Rex Allen, Jr.-Two Less Lonely People
TTITLE8=Southern Pacific-Honey I Dare You
TTITLE9=Con Hunley-What's New With You
TTITLE10=Holly Dunn-Whaat's New With You
TTITLE11=Highway 101-Cry, Cry, Cry
EXTD=
EXTT0=
EXTT1=
EXTT2=
EXTT3=
EXTT4=
EXTT5=
EXTT6=
EXTT7=
EXTT8=
EXTT9=
EXTT10=
EXTT11=
PLAYORDER=
